# xmcd CD database file
#
# Track frame offsets:
#	150
#	20062
#	36151
#	49663
#	63577
#	74737
#	85784
#	104562
#	119869
#	133674
#	146966
#	162704
#	177621
#	190336
#	204346
#	219442
#	237050
#
# Disc length: 3327 seconds
#
# Revision: 0
# Processed by: cddbd v1.5.2PL0 Copyright (c) Steve Scherf et al.
# Submitted via: CDex 1.51
#
DISCID=150cfd11
DTITLE=Costa Brothers - We're From The Country
DYEAR=1900
DGENRE=Country
TTITLE0=I Swear
TTITLE1=That'll Be Alright
TTITLE2=Could I Have This Dance
TTITLE3=The Biggest Disappointment
TTITLE4=Blue Spanish Eyes
TTITLE5=World's Greatest Mum
TTITLE6=Neon Moon
TTITLE7=Suspicious Minds
TTITLE8=Am I That Easy To Forget
TTITLE9=You'll Never Walk Alone
TTITLE10=Blue Eyes Crying In The Rain
TTITLE11=I'm From The Country
TTITLE12=Crystal Chandeliers
TTITLE13=Guitars and Cadillacs
TTITLE14=It's Now Or Never
TTITLE15=Ghost Riders
TTITLE16=Mallee Moon
EXTD=
EXTT0=
EXTT1=
EXTT2=
EXTT3=
EXTT4=
EXTT5=
EXTT6=
EXTT7=
EXTT8=
EXTT9=
EXTT10=
EXTT11=
EXTT12=
EXTT13=
EXTT14=
EXTT15=
EXTT16=
PLAYORDER=
